<?xml version="1.0" encoding="UTF-8" standalone="no"?>
<!-- Created with Inkscape (http://www.inkscape.org/) -->

<svg
   xmlns:dc="http://purl.org/dc/elements/1.1/"
   xmlns:cc="http://creativecommons.org/ns#"
   xmlns:rdf="http://www.w3.org/1999/02/22-rdf-syntax-ns#"
   xmlns:svg="http://www.w3.org/2000/svg"
   xmlns="http://www.w3.org/2000/svg"
   xmlns:sodipodi="http://sodipodi.sourceforge.net/DTD/sodipodi-0.dtd"
   xmlns:inkscape="http://www.inkscape.org/namespaces/inkscape"
   version="1.1"
   id="svg2"
   width="269.22903"
   height="81.096741"
   viewBox="0 0 269.22903 81.096741"
   sodipodi:docname="hawk-logo.svg"
   inkscape:version="0.92.3 (2405546, 2018-03-11)">
  <metadata
     id="metadata8">
    <rdf:RDF>
      <cc:Work
         rdf:about="">
        <dc:format>image/svg+xml</dc:format>
        <dc:type
           rdf:resource="http://purl.org/dc/dcmitype/StillImage" />
        <dc:title></dc:title>
      </cc:Work>
    </rdf:RDF>
  </metadata>
  <defs
     id="defs6" />
  <sodipodi:namedview
     pagecolor="#ffffff"
     bordercolor="#666666"
     borderopacity="1"
     objecttolerance="10"
     gridtolerance="10"
     guidetolerance="10"
     inkscape:pageopacity="0"
     inkscape:pageshadow="2"
     inkscape:window-width="1853"
     inkscape:window-height="1018"
     id="namedview4"
     showgrid="false"
     fit-margin-top="0"
     fit-margin-left="0"
     fit-margin-right="0"
     fit-margin-bottom="0"
     inkscape:zoom="1.6388889"
     inkscape:cx="147.51954"
     inkscape:cy="34.444129"
     inkscape:window-x="67"
     inkscape:window-y="34"
     inkscape:window-maximized="1"
     inkscape:current-layer="svg2" />
  <path
     style="fill:#000000"
     d="M 67.834333,78.53339 C 61.655005,74.33443 59.631297,69.89253 59.179764,59.53718 58.701838,48.57654 59.786478,44.18763 64.94589,36.20501 c 3.035439,-4.69641 5.190752,-6.77209 9.25549,-8.91353 5.123323,-2.69913 5.742074,-2.78363 18.70267,-2.55409 7.37223,0.13056 13.52615,0.35948 13.67537,0.5087 0.14923,0.14922 0.4174,12.53025 0.59595,27.5134 L 107.5,80.00157 103.29966,80.00078 99.09931,80 98.43629,74.13968 97.77327,68.27936 93.48185,72.57078 C 84.867198,81.18543 75.08421,83.45981 67.834333,78.53339 Z M 87.43169,68.83148 c 2.339454,-1.79594 5.67437,-5.4125 7.41093,-8.0368 C 97.92425,56.13771 98,55.74846 98,44.57063 98,37.07765 97.60592,32.87448 96.86018,32.41358 94.54707,30.984 82.563753,31.59953 79.301693,33.31548 67.531002,39.50726 64.245882,64.31103 74.244289,71.50061 77.40597,73.77409 82.277753,72.78804 87.43169,68.83148 Z M 0,40 V 0 h 4 4 v 18 c 0,9.9 0.3375,17.99999 0.75,17.99997 0.4125,-2e-5 1.995104,-1.5605 3.516898,-3.46775 1.521795,-1.90724 4.799168,-4.65871 7.283052,-6.11436 8.409931,-4.92855 20.881343,-2.15838 24.476575,5.43677 0.852734,1.80146 1.361407,9.90298 1.594506,25.39537 L 45.963329,80 H 41.481665 37 V 60.0651 C 37,34.79422 36.076444,32.09905 27.393802,32.0318 22.289548,31.9923 15.73937,36.65857 11.12928,43.61854 L 8,48.34289 V 64.17144 80 H 4 0 Z m 223,0 V 0 h 4 4 v 25 c 0,13.75 0.29171,25 0.64824,25 0.35653,0 6.41741,-5.625 13.46862,-12.5 L 257.93725,25 h 5.60395 5.60396 l -1.82456,2.25 c -1.47033,1.81317 -16.15297,15.93074 -22.20459,21.35003 -1.45511,1.30306 1.34218,4.93716 16.42189,21.33449 9.81273,10.67013 9.64464,10.07784 2.83454,9.9881 L 258.5,79.84522 245.5,65.42261 C 238.35,57.49019 232.1625,51.00001 231.75,51 231.3375,51 231,57.525 231,65.5 V 80 h -4 -4 z m -97.09272,36.67236 c -4.64556,-2.45348 -9.2589,-8.69902 -10.46859,-14.17236 -0.59139,-2.67576 -0.33953,-2.50313 2.33023,1.59724 4.61706,7.09113 8.52312,9.40276 15.88826,9.40276 5.38591,0 6.63365,-0.38564 9.96097,-3.07866 5.75109,-4.65475 8.3826,-10.41165 8.37811,-18.32862 -0.003,-4.94693 -0.53328,-7.46645 -2.12499,-10.09272 l -2.12126,-3.5 2.26301,2 c 7.43635,6.57208 6.24091,24.60744 -2.13067,32.14501 -7.4859,6.74011 -14.42917,8.0126 -21.97507,4.02735 z m 54.8518,0.90471 c -2.0575,-0.73433 -4.86493,-2.07163 -6.23871,-2.97177 -3.86657,-2.53347 -8.26837,-11.18258 -9.54593,-18.75682 -0.77874,-4.61689 -2.07682,-8.0702 -4.0655,-10.81549 C 158.51585,41.72943 158.29345,41 159.67928,41 c 0.9305,0 2.73155,0.97677 4.00233,2.17061 2.96808,2.78837 3.89557,1.84621 1.92804,-1.95856 -2.54929,-4.92979 -10.54088,-10.61416 -12.36201,-8.79302 -0.3309,0.3309 0.26551,1.25767 1.32536,2.0595 1.05985,0.80182 1.4013,1.47217 0.75879,1.48967 -0.64252,0.0175 -1.88002,0.30494 -2.75,0.63879 C 151.47327,37.03237 151,36.63159 151,35.2675 151,33.2202 147.33372,31 143.95295,31 c -2.61854,0 -2.47184,1.42138 0.29705,2.87812 1.67486,0.88115 1.73876,1.01351 0.25,0.5178 -1.1,-0.36627 -3.575,-0.96604 -5.5,-1.33283 l -3.5,-0.66689 3,-1.58919 c 2.40913,-1.27619 4.78939,-1.46183 12.08515,-0.94253 7.79899,0.55512 9.59298,1.03401 12.67238,3.38278 4.86238,3.70872 8.51608,11.60466 9.37158,20.25274 0.63805,6.44993 0.56195,6.89215 -0.96832,5.62756 -2.49652,-2.06308 -2.00563,-0.0629 1.24093,5.05642 5.37015,8.46784 15.17387,9.74926 23.30281,3.04586 4.41671,-3.64217 5.33075,-4.83696 8.41087,-10.99433 4.42994,-8.85573 3.08863,-22.12663 -3.2076,-31.73588 -3.25071,-4.96122 -0.69045,-4.49174 4.30409,0.78925 7.36504,7.78745 10.08557,18.51307 7.66297,30.21112 -1.93187,9.32844 -9.57257,17.93368 -19.08303,21.492 -6.21629,2.32581 -8.39185,2.41987 -13.53275,0.58507 z M 125.68539,63.05488 C 119.41632,59.02779 116.58181,53.12516 116.53502,44 c -0.0328,-6.40315 2.66428,-16 4.49666,-16 0.47645,0 0.15042,1.6875 -0.72451,3.75 -2.36694,5.57967 -2.14848,13.89493 0.49828,18.96596 4.5683,8.75258 14.87837,11.99339 22.2821,7.00402 4.54031,-3.05971 6.08745,-6.28804 5.56149,-11.60484 -0.27151,-2.74465 -0.1057,-3.86683 0.44328,-3 1.43957,2.27307 1.02417,11.5752 -0.67436,15.10093 -2.36406,4.90723 -6.00325,7.13051 -12.37252,7.55875 -4.84159,0.32552 -6.15653,-0.0197 -10.36005,-2.71994 z"
     id="path4520"
     inkscape:connector-curvature="0" />
</svg>
